<svg data-v-decfdd8a="" version="1.0" xmlns="http://www.w3.org/2000/svg" xmlns:xlink="http://www.w3.org/1999/xlink" width="100%" height="100%" viewBox="0 0 340.000000 250.000000" preserveAspectRatio="xMidYMid meet" color-interpolation-filters="sRGB" style="margin: auto;"> <rect data-v-decfdd8a="" x="0" y="0" width="100%" height="100%" fill="#fff" fill-opacity="0" class="background"></rect>  <g data-v-decfdd8a="" fill="#333" class="icon-text-wrapper icon-svg-group iconsvg" transform="translate(46.959999084472656,90.54496383666992)"><g class="iconsvg-imagesvg" transform="matrix(1,0,0,1,0,0)" opacity="1"><g><rect fill="#333" fill-opacity="0" stroke-width="2" x="0" y="0" width="59.99999999999999" height="68.91007235557596" class="image-rect"></rect> <svg x="0" y="0" width="59.99999999999999" height="68.91007235557596" filtersec="colorsb4331552311" class="image-svg-svg primary" style="overflow: visible;"><svg xmlns="http://www.w3.org/2000/svg" viewBox="0 0 87.06999206542969 100"><path fill="#333" d="M43.55 23.46l11.53 6.64 11.57 6.63v50l20.42-11.75v-50L65.31 12.51 43.55 0 23.13 11.72l20.42 11.74z"></path><path d="M64 64.82l-8.92 5.08-11.53 6.64L32 83.17l-8.85 5.08L43.55 100 52 95.13l12-6.88zM20.42 36.73L32 30.1l8.84-5.1-20.42-11.73-4.26 2.46L0 25v23.45l8.89-5.08 11.53-6.64z" fill="#ef1a24"></path><path fill="#333" d="M20.42 63.27V39.93l-.03-.03L0 51.61v23.37L20.39 86.7l20.39-11.72v-.03l-8.8-5.05-11.56-6.63z"></path></svg></svg> <!----></g></g> <g transform="translate(67,20.435036659240723)"><g data-gra="path-name" fill-rule="" class="tp-name iconsvg-namesvg" opacity="0.9373098535696979" transform="matrix(1,0,0,1,0,0)"><g transform="scale(1)"><g><path d="M5.94 0L0-19.14 4.58-19.14Q5.19-19.14 5.63-18.86 6.07-18.59 6.16-18.14L6.16-18.14 8.08-9.56Q8.31-8.58 8.49-7.66 8.68-6.74 8.82-5.83L8.82-5.83Q9.08-6.74 9.37-7.65 9.65-8.56 9.93-9.56L9.93-9.56 12.33-18.16Q12.44-18.59 12.87-18.87 13.29-19.16 13.84-19.16L13.84-19.16 16.39-19.16Q17-19.16 17.43-18.87 17.87-18.59 17.98-18.16L17.98-18.16 20.27-9.56Q20.53-8.58 20.79-7.66 21.06-6.74 21.3-5.8L21.3-5.8Q21.45-6.72 21.66-7.63 21.87-8.55 22.11-9.56L22.11-9.56 24.14-18.14Q24.24-18.59 24.67-18.86 25.1-19.14 25.66-19.14L25.66-19.14 30.01-19.14 24.07 0 19.42 0Q19.05 0 18.79-0.22 18.53-0.44 18.38-0.96L18.38-0.96 15.65-10.5Q15.47-11.15 15.3-11.78 15.14-12.4 15.01-13.03L15.01-13.03Q14.88-12.39 14.72-11.75 14.56-11.11 14.36-10.47L14.36-10.47 11.59-0.96Q11.31 0 10.37 0L10.37 0 5.94 0ZM40.42-19.44L40.42-19.44Q42.32-19.44 43.9-18.85 45.48-18.25 46.62-17.13 47.75-16 48.39-14.37 49.02-12.74 49.02-10.67L49.02-10.67Q49.02-10.02 48.97-9.62 48.91-9.21 48.77-8.97 48.62-8.73 48.37-8.64 48.12-8.55 47.73-8.55L47.73-8.55 36.69-8.55Q36.97-6.15 38.15-5.07 39.33-3.99 41.2-3.99L41.2-3.99Q42.19-3.99 42.91-4.23 43.63-4.47 44.2-4.76 44.76-5.06 45.23-5.3 45.7-5.54 46.22-5.54L46.22-5.54Q46.9-5.54 47.25-5.04L47.25-5.04 48.91-2.99Q48.03-1.97 47-1.34 45.98-0.7 44.9-0.34 43.82 0.02 42.74 0.16 41.66 0.3 40.68 0.3L40.68 0.3Q38.67 0.3 36.91-0.36 35.14-1.02 33.82-2.31 32.5-3.6 31.74-5.52 30.97-7.44 30.97-9.99L30.97-9.99Q30.97-11.91 31.63-13.62 32.28-15.34 33.51-16.63 34.74-17.92 36.48-18.68 38.23-19.44 40.42-19.44ZM40.53-15.49L40.53-15.49Q38.89-15.49 37.97-14.55 37.04-13.62 36.75-11.87L36.75-11.87 43.89-11.87Q43.89-12.55 43.72-13.2 43.54-13.84 43.14-14.35 42.75-14.86 42.1-15.17 41.46-15.49 40.53-15.49ZM56.11 0L52.31 0 52.31-27.63 58.03-27.63 58.03-17.11Q59.1-18.16 60.46-18.8 61.82-19.44 63.64-19.44L63.64-19.44Q65.14-19.44 66.41-18.79 67.68-18.14 68.61-16.9 69.53-15.65 70.06-13.84 70.58-12.03 70.58-9.73L70.58-9.73Q70.58-7.57 69.98-5.74 69.38-3.91 68.3-2.57 67.22-1.22 65.72-0.46 64.21 0.3 62.39 0.3L62.39 0.3Q61.54 0.3 60.86 0.13 60.19-0.04 59.63-0.34 59.06-0.65 58.59-1.07 58.12-1.5 57.68-1.99L57.68-1.99 57.48-1.03Q57.35-0.44 57.01-0.22 56.67 0 56.11 0L56.11 0ZM61.65-15.14L61.65-15.14Q61.02-15.14 60.51-15.02 60.01-14.9 59.57-14.67 59.14-14.45 58.77-14.11 58.4-13.77 58.03-13.33L58.03-13.33 58.03-5.21Q58.68-4.49 59.43-4.2 60.19-3.91 61.02-3.91L61.02-3.91Q61.82-3.91 62.48-4.23 63.14-4.54 63.63-5.23 64.12-5.92 64.4-7.03 64.68-8.14 64.68-9.73L64.68-9.73Q64.68-11.24 64.45-12.27 64.23-13.31 63.84-13.94 63.44-14.58 62.89-14.86 62.33-15.14 61.65-15.14ZM86.57 0L80.84 0 80.84-19.14 84.39-19.14Q84.92-19.14 85.28-18.9 85.64-18.66 85.79-18.18L85.79-18.18 86.11-17.15Q86.59-17.65 87.1-18.06 87.62-18.48 88.22-18.78 88.82-19.09 89.51-19.26 90.2-19.44 91.03-19.44L91.03-19.44Q92.77-19.44 93.9-18.54 95.04-17.65 95.63-16.15L95.63-16.15Q96.11-17.04 96.8-17.66 97.49-18.29 98.3-18.68 99.1-19.07 99.99-19.25 100.89-19.44 101.78-19.44L101.78-19.44Q103.42-19.44 104.69-18.95 105.97-18.46 106.82-17.53 107.68-16.59 108.13-15.24 108.57-13.88 108.57-12.16L108.57-12.16 108.57 0 102.85 0 102.85-12.16Q102.85-15.14 100.3-15.14L100.3-15.14Q99.14-15.14 98.37-14.37 97.6-13.6 97.6-12.16L97.6-12.16 97.6 0 91.88 0 91.88-12.16Q91.88-13.81 91.24-14.47 90.59-15.14 89.34-15.14L89.34-15.14Q88.56-15.14 87.87-14.78 87.18-14.43 86.57-13.84L86.57-13.84 86.57 0ZM112.81-19.14L118.54-19.14 118.54 0 112.81 0 112.81-19.14ZM119.2-24.38L119.2-24.38Q119.2-23.7 118.92-23.1 118.65-22.5 118.17-22.05 117.69-21.6 117.05-21.33 116.41-21.06 115.69-21.06L115.69-21.06Q114.99-21.06 114.38-21.33 113.77-21.6 113.3-22.05 112.83-22.5 112.56-23.1 112.3-23.7 112.3-24.38L112.3-24.38Q112.3-25.08 112.56-25.69 112.83-26.3 113.3-26.76 113.77-27.23 114.38-27.48 114.99-27.74 115.69-27.74L115.69-27.74Q116.41-27.74 117.05-27.48 117.69-27.23 118.17-26.76 118.65-26.3 118.92-25.69 119.2-25.08 119.2-24.38ZM128.87 0L123.15 0 123.15-19.14 126.69-19.14Q127.23-19.14 127.59-18.9 127.95-18.66 128.1-18.18L128.1-18.18 128.43-17.07Q128.98-17.59 129.57-18.03 130.16-18.48 130.84-18.78 131.51-19.09 132.3-19.26 133.08-19.44 134-19.44L134-19.44Q135.57-19.44 136.78-18.89 137.99-18.35 138.82-17.38 139.65-16.41 140.08-15.07 140.5-13.73 140.5-12.16L140.5-12.16 140.5 0 134.78 0 134.78-12.16Q134.78-13.57 134.13-14.35 133.49-15.14 132.23-15.14L132.23-15.14Q131.29-15.14 130.46-14.73 129.63-14.32 128.87-13.64L128.87-13.64 128.87 0ZM161.54 0L158 0Q157.46 0 157.1-0.24 156.74-0.48 156.6-0.96L156.6-0.96 156.15-2.42Q155.58-1.81 154.95-1.31 154.33-0.81 153.6-0.45 152.87-0.09 152.03 0.1 151.19 0.3 150.21 0.3L150.21 0.3Q148.71 0.3 147.44-0.37 146.17-1.03 145.24-2.29 144.32-3.54 143.8-5.36 143.27-7.18 143.27-9.51L143.27-9.51Q143.27-11.65 143.86-13.48 144.45-15.32 145.53-16.66 146.61-18 148.12-18.75 149.64-19.51 151.46-19.51L151.46-19.51Q152.94-19.51 153.97-19.08 154.99-18.64 155.82-17.94L155.82-17.94 155.82-27.63 161.54-27.63 161.54 0ZM152.2-4.1L152.2-4.1Q152.83-4.1 153.34-4.22 153.85-4.34 154.27-4.56 154.69-4.78 155.07-5.11 155.45-5.45 155.82-5.89L155.82-5.89 155.82-14.01Q155.16-14.73 154.41-15.02 153.66-15.3 152.83-15.3L152.83-15.3Q152.04-15.3 151.37-14.99 150.71-14.67 150.22-13.98 149.73-13.29 149.45-12.18 149.18-11.07 149.18-9.51L149.18-9.51Q149.18-7.99 149.4-6.96 149.62-5.92 150.02-5.29 150.41-4.65 150.97-4.37 151.52-4.1 152.2-4.1ZM178.97-16.96L177.67-14.95Q177.45-14.6 177.2-14.45 176.95-14.3 176.57-14.3L176.57-14.3Q176.16-14.3 175.75-14.48 175.35-14.66 174.88-14.86 174.41-15.06 173.82-15.24 173.23-15.41 172.47-15.41L172.47-15.41Q171.38-15.41 170.8-15 170.22-14.58 170.22-13.84L170.22-13.84Q170.22-13.31 170.6-12.96 170.97-12.61 171.6-12.34 172.23-12.07 173.02-11.83 173.82-11.59 174.65-11.3 175.48-11 176.27-10.6 177.07-10.21 177.69-9.63 178.32-9.04 178.7-8.21 179.08-7.38 179.08-6.22L179.08-6.22Q179.08-4.8 178.56-3.6 178.04-2.4 177.02-1.53 175.99-0.66 174.49-0.18 172.99 0.3 171.03 0.3L171.03 0.3Q170.05 0.3 169.07 0.11 168.09-0.07 167.18-0.39 166.27-0.7 165.49-1.14 164.72-1.57 164.16-2.07L164.16-2.07 165.49-4.17Q165.73-4.54 166.06-4.75 166.4-4.97 166.93-4.97L166.93-4.97Q167.43-4.97 167.83-4.74 168.22-4.52 168.69-4.26 169.15-4.01 169.77-3.78 170.38-3.56 171.32-3.56L171.32-3.56Q171.99-3.56 172.45-3.7 172.91-3.84 173.19-4.08 173.47-4.32 173.6-4.61 173.72-4.91 173.72-5.22L173.72-5.22Q173.72-5.8 173.34-6.16 172.95-6.53 172.32-6.8 171.69-7.07 170.89-7.3 170.09-7.53 169.26-7.83 168.43-8.12 167.62-8.54 166.82-8.95 166.19-9.59 165.57-10.23 165.18-11.15 164.79-12.07 164.79-13.38L164.79-13.38Q164.79-14.6 165.26-15.7 165.73-16.8 166.67-17.63 167.61-18.46 169.04-18.95 170.46-19.44 172.36-19.44L172.36-19.44Q173.39-19.44 174.36-19.25 175.33-19.07 176.18-18.73 177.03-18.4 177.73-17.95 178.43-17.5 178.97-16.96L178.97-16.96Z" transform="translate(0, 27.739999771118164)"></path></g> <!----> <!----> <!----> <!----> <!----> <!----> <!----></g></g> <!----></g></g><defs v-gra="od"></defs></svg>